<svg width="25" height="25" viewBox="0 0 25 25" fill="none" xmlns="http://www.w3.org/2000/svg">
<path d="M24.9221 12.4611C24.9221 5.57903 19.3431 3.24249e-05 12.4611 3.24249e-05C5.579 3.24249e-05 0 5.57903 0 12.4611C0 18.6808 4.55683 23.8359 10.514 24.7708V16.0631H7.35007V12.4611H10.514V9.71576C10.514 6.59271 12.3744 4.86763 15.2207 4.86763C16.5841 4.86763 18.0101 5.11101 18.0101 5.11101V8.1776H16.4388C14.8908 8.1776 14.4081 9.13814 14.4081 10.1236V12.4611H17.8641L17.3116 16.0631H14.4081V24.7708C20.3653 23.8359 24.9221 18.6808 24.9221 12.4611Z" fill="#0D0D0D" fill-opacity="0.7"/>
</svg>
