<svg width="24" height="21" viewBox="0 0 24 21" fill="none" xmlns="http://www.w3.org/2000/svg">
<path fill-rule="evenodd" clip-rule="evenodd" d="M1.65806 9.41325C8.09146 6.56713 12.3919 4.72756 14.5593 3.82513C20.683 1.25668 21.956 0.805461 22.7816 0.770752C22.9537 0.770752 23.3665 0.805461 23.6417 1.01371C23.8481 1.18726 23.9169 1.43022 23.9513 1.60376C23.9858 1.77731 24.0202 2.15911 23.9858 2.47149C23.6417 5.97708 22.2312 14.5502 21.4743 18.4723C21.1647 20.1383 20.5454 20.6936 19.9606 20.763C18.6877 20.8672 17.69 19.8953 16.4514 19.097C14.5249 17.8128 13.424 17.0145 11.5318 15.765C9.36438 14.3072 10.7749 13.5089 12.0134 12.2247C12.3231 11.8776 17.9996 6.70597 18.1028 6.22004C18.1028 6.15062 18.1372 5.94237 17.9996 5.83824C17.862 5.73412 17.69 5.76883 17.5523 5.80353C17.3459 5.83824 14.2496 7.92077 8.22908 12.0164C7.33459 12.6412 6.54332 12.9188 5.82085 12.9188C5.02958 12.9188 3.51584 12.4676 2.38053 12.0858C1.0044 11.6346 -0.0964997 11.3917 0.0067099 10.6281C0.0755163 10.2463 0.625967 9.82976 1.65806 9.41325Z" fill="#0D0D0D"/>
</svg>
