<svg width="25" height="26" viewBox="0 0 25 26" fill="none" xmlns="http://www.w3.org/2000/svg">
<path fill-rule="evenodd" clip-rule="evenodd" d="M21.3574 4.40362C19.0076 2.06209 15.8824 0.77194 12.5525 0.770752C5.69104 0.770752 0.106838 6.32757 0.10445 13.1579C0.103256 15.3414 0.676838 17.4726 1.7661 19.3509L0 25.7708L6.59886 24.0482C8.41687 25.0354 10.4641 25.5551 12.5472 25.5557H12.5525C19.4128 25.5557 24.9976 19.9983 25 13.168C25.0012 9.8577 23.7078 6.74574 21.3574 4.40421V4.40362ZM12.5525 23.4637H12.5483C10.6921 23.4631 8.87111 22.9665 7.28229 22.0286L6.90446 21.8053L2.98847 22.8275L4.03357 19.0277L3.78766 18.6381C2.75211 16.9987 2.20479 15.1038 2.20599 13.1585C2.20837 7.4817 6.84954 2.8628 12.5567 2.8628C15.3201 2.86398 17.9177 3.93615 19.8712 5.88266C21.8247 7.82859 22.8997 10.416 22.8985 13.1668C22.896 18.8442 18.2549 23.4631 12.5525 23.4631V23.4637ZM18.2274 15.7525C17.9165 15.5974 16.3874 14.849 16.102 14.7457C15.8167 14.6423 15.6097 14.5906 15.4025 14.9007C15.1954 15.2108 14.5992 15.9081 14.4177 16.1142C14.2363 16.3209 14.0548 16.3465 13.7438 16.1914C13.4329 16.0364 12.4308 15.7097 11.2424 14.6553C10.3179 13.8344 9.69354 12.8211 9.51215 12.511C9.3307 12.201 9.49306 12.0335 9.6482 11.8796C9.78785 11.7406 9.95917 11.5179 10.1149 11.3373C10.2708 11.1567 10.3221 11.0273 10.4259 10.8211C10.5298 10.6144 10.4778 10.4339 10.4003 10.2788C10.3226 10.1238 9.70076 8.60015 9.44111 7.98064C9.18861 7.37715 8.93201 7.45912 8.7416 7.44903C8.56014 7.44011 8.35306 7.43834 8.14535 7.43834C7.93764 7.43834 7.60097 7.51555 7.31569 7.82562C7.03042 8.13565 6.22702 8.88468 6.22702 10.4077C6.22702 11.9307 7.34139 13.4032 7.49715 13.61C7.65292 13.8167 9.69056 16.9428 12.8103 18.2841C13.5523 18.603 14.1318 18.7937 14.5836 18.9363C15.3285 19.1721 16.0065 19.1388 16.5425 19.0592C17.14 18.9701 18.3826 18.3102 18.6417 17.5873C18.9007 16.8644 18.9007 16.2443 18.8231 16.1154C18.7456 15.9865 18.5378 15.9087 18.2269 15.7536L18.2274 15.7525Z" fill="#0D0D0D" fill-opacity="0.7"/>
</svg>
