<svg width="24" height="26" viewBox="0 0 24 26" fill="none" xmlns="http://www.w3.org/2000/svg">
<path d="M7.03017 0.858144C5.75336 0.920894 4.88143 1.13314 4.11918 1.44515C3.33029 1.7654 2.66165 2.19515 1.99636 2.89065C1.33107 3.58615 0.921389 4.28316 0.616106 5.10616C0.320663 5.90191 0.120501 6.81091 0.0641001 8.14167C0.00769954 9.47242 -0.00478059 9.90018 0.00145947 13.2947C0.00769954 16.6892 0.0220997 17.1147 0.0840203 18.4482C0.144981 19.778 0.348023 20.686 0.647546 21.4802C0.955469 22.302 1.36755 22.9982 2.03548 23.6915C2.70341 24.3847 3.37205 24.8105 4.16406 25.129C4.92727 25.4362 5.80016 25.6457 7.07745 25.704C8.35474 25.7622 8.76587 25.7757 12.0237 25.7692C15.2815 25.7627 15.6916 25.7477 16.9715 25.6845C18.2515 25.6212 19.1186 25.4082 19.8813 25.0977C20.6702 24.7762 21.3391 24.3477 22.0042 23.6517C22.6692 22.9557 23.0787 22.2582 23.3837 21.4347C23.6794 20.6397 23.8803 19.7305 23.9357 18.401C23.9916 17.0667 24.0048 16.6407 23.9986 13.2467C23.9923 9.85268 23.9777 9.42717 23.917 8.09417C23.8563 6.76116 23.653 5.85591 23.3537 5.06116C23.0453 4.23941 22.6337 3.54365 21.966 2.8499C21.2983 2.15615 20.6282 1.7299 19.8379 1.4129C19.0742 1.10514 18.2018 0.895394 16.9245 0.837894C15.6472 0.780393 15.2361 0.765643 11.9771 0.772143C8.71811 0.778643 8.3101 0.793144 7.03017 0.858144ZM7.17033 23.4552C6.00032 23.4022 5.36503 23.1997 4.94167 23.0302C4.38102 22.8052 3.98166 22.5332 3.55974 22.098C3.13781 21.6627 2.87861 21.2452 2.65973 20.6625C2.49532 20.2215 2.29732 19.5605 2.2426 18.3417C2.18308 17.0245 2.1706 16.6289 2.16364 13.2917C2.15668 9.95442 2.16892 9.55942 2.22436 8.24167C2.27428 7.02392 2.46988 6.36141 2.63237 5.92066C2.84837 5.33591 3.10853 4.92066 3.52734 4.48141C3.94614 4.04215 4.34574 3.77165 4.90567 3.54365C5.32855 3.37165 5.96312 3.16715 7.13265 3.10915C8.39818 3.04665 8.77739 3.03415 11.9807 3.0269C15.184 3.01965 15.5642 3.03215 16.8302 3.09015C17.9992 3.14315 18.6355 3.3449 19.0581 3.51515C19.619 3.74015 20.0181 4.01041 20.4398 4.44741C20.8615 4.88441 21.1214 5.29916 21.3403 5.88366C21.5057 6.32291 21.702 6.98366 21.7572 8.20267C21.8174 9.52092 21.8311 9.91617 21.8369 13.2527C21.8426 16.5892 21.8314 16.9855 21.7759 18.3027C21.7248 19.5215 21.5309 20.1835 21.3679 20.625C21.1519 21.2087 20.8915 21.625 20.4725 22.064C20.0534 22.503 19.6543 22.7735 19.0941 23.0015C18.6717 23.1732 18.0364 23.3782 16.8679 23.4362C15.6023 23.4982 15.2231 23.5112 12.0186 23.5185C8.81411 23.5257 8.4361 23.5122 7.17057 23.4552M16.9531 6.58991C16.9535 6.88661 17.0385 7.17649 17.1971 7.4229C17.3558 7.66931 17.581 7.86118 17.8443 7.97424C18.1077 8.0873 18.3973 8.11647 18.6765 8.05807C18.9558 7.99966 19.2122 7.85631 19.4132 7.64613C19.6142 7.43595 19.7509 7.16839 19.806 6.87729C19.861 6.58619 19.8319 6.28462 19.7224 6.01073C19.6129 5.73684 19.4279 5.50292 19.1908 5.33857C18.9536 5.17422 18.675 5.08682 18.3902 5.08741C18.0084 5.0882 17.6425 5.24693 17.373 5.52869C17.1035 5.81045 16.9524 6.19217 16.9531 6.58991ZM5.83856 13.2832C5.84528 16.8282 8.60915 19.6955 12.0117 19.6887C15.4142 19.682 18.1687 16.8032 18.1622 13.2582C18.1557 9.71317 15.3911 6.84516 11.9881 6.85216C8.58515 6.85916 5.83208 9.73867 5.83856 13.2832ZM8.00002 13.2787C7.99846 12.4546 8.23153 11.6485 8.66976 10.9624C9.108 10.2762 9.73172 9.7409 10.462 9.42402C11.1924 9.10714 11.9965 9.02297 12.7727 9.18214C13.549 9.34132 14.2625 9.73669 14.823 10.3183C15.3836 10.8998 15.766 11.6415 15.9218 12.4495C16.0777 13.2574 16.0001 14.0954 15.6988 14.8574C15.3975 15.6194 14.886 16.2712 14.2291 16.7304C13.5721 17.1896 12.7992 17.4356 12.0081 17.4372C11.4827 17.4384 10.9623 17.3317 10.4766 17.1233C9.99086 16.9149 9.54928 16.6089 9.17709 16.2228C8.80489 15.8366 8.50938 15.3778 8.30741 14.8727C8.10545 14.3675 8.001 13.8259 8.00002 13.2787Z" fill="#0D0D0D" fill-opacity="0.7"/>
</svg>
